<svg width="37" height="37" viewBox="0 0 37 37" fill="none" xmlns="http://www.w3.org/2000/svg">
<path d="M36.9974 18.5006C36.9974 27.8443 30.0716 35.5689 21.0743 36.8224C20.2331 36.9391 19.3724 37 18.4987 37C17.4902 37 16.4999 36.9196 15.5355 36.7641C6.72751 35.3459 0 27.7082 0 18.5006C0 8.28329 8.283 0 18.5 0C28.717 0 37 8.28329 37 18.5006H36.9974Z" fill="#151515"/>
<path d="M21.0751 14.859V18.8892H26.0605L25.2711 24.318H21.0751V36.8259C20.2338 36.9426 19.3731 37.0035 18.4995 37.0035C17.491 37.0035 16.5007 36.9232 15.5363 36.7676V24.318H10.9385V18.8892H15.5363V13.9581C15.5363 10.8988 18.016 8.41772 21.0764 8.41772V8.42032C21.0855 8.42032 21.0933 8.41772 21.1023 8.41772H26.0618V13.1129H22.8212C21.858 13.1129 21.0764 13.8946 21.0764 14.8577L21.0751 14.859Z" fill="white"/>
</svg>
