<svg width="370" height="73" viewBox="0 0 370 73" fill="none" xmlns="http://www.w3.org/2000/svg">
<path d="M92.413 48.51C90.169 48.51 88.197 47.983 86.497 46.929C84.797 45.841 83.471 44.294 82.519 42.288C81.567 40.282 81.091 37.885 81.091 35.097C81.091 32.309 81.567 29.929 82.519 27.957C83.471 25.951 84.797 24.421 86.497 23.367C88.197 22.279 90.169 21.735 92.413 21.735C94.589 21.735 96.493 22.279 98.125 23.367C99.791 24.421 100.896 25.849 101.44 27.651H100.879L101.44 22.245H107.56C107.458 23.299 107.356 24.37 107.254 25.458C107.186 26.546 107.152 27.617 107.152 28.671V48H100.828L100.777 42.696H101.389C100.845 44.464 99.74 45.875 98.074 46.929C96.408 47.983 94.521 48.51 92.413 48.51ZM94.198 43.614C96.204 43.614 97.819 42.917 99.043 41.523C100.267 40.095 100.879 37.953 100.879 35.097C100.879 32.241 100.267 30.116 99.043 28.722C97.819 27.328 96.204 26.631 94.198 26.631C92.192 26.631 90.577 27.328 89.353 28.722C88.129 30.116 87.517 32.241 87.517 35.097C87.517 37.953 88.112 40.095 89.302 41.523C90.526 42.917 92.158 43.614 94.198 43.614ZM119.986 48L110.674 22.176H117.73L125.458 44.4H122.098L130.162 22.176H136.498L144.322 44.4H140.962L148.93 22.176H155.554L146.194 48H138.946L132.082 28.944H134.29L127.186 48H119.986ZM174.031 48V42.96L173.551 41.856V32.832C173.551 31.232 173.055 29.984 172.063 29.088C171.103 28.192 169.615 27.744 167.599 27.744C166.223 27.744 164.863 27.968 163.519 28.416C162.207 28.832 161.087 29.408 160.159 30.144L157.471 24.912C158.879 23.92 160.575 23.152 162.559 22.608C164.543 22.064 166.559 21.792 168.607 21.792C172.543 21.792 175.599 22.72 177.775 24.576C179.951 26.432 181.039 29.328 181.039 33.264V48H174.031ZM166.159 48.384C164.143 48.384 162.415 48.048 160.975 47.376C159.535 46.672 158.431 45.728 157.663 44.544C156.895 43.36 156.511 42.032 156.511 40.56C156.511 39.024 156.879 37.68 157.615 36.528C158.383 35.376 159.583 34.48 161.215 33.84C162.847 33.168 164.975 32.832 167.599 32.832H174.463V37.2H168.415C166.655 37.2 165.439 37.488 164.767 38.064C164.127 38.64 163.807 39.36 163.807 40.224C163.807 41.184 164.175 41.952 164.911 42.528C165.679 43.072 166.719 43.344 168.031 43.344C169.279 43.344 170.399 43.056 171.391 42.48C172.383 41.872 173.103 40.992 173.551 39.84L174.703 43.296C174.159 44.96 173.167 46.224 171.727 47.088C170.287 47.952 168.431 48.384 166.159 48.384ZM190.612 57.696C189.268 57.696 187.94 57.488 186.628 57.072C185.316 56.656 184.244 56.08 183.412 55.344L186.148 50.016C186.724 50.528 187.38 50.928 188.116 51.216C188.884 51.504 189.636 51.648 190.372 51.648C191.428 51.648 192.26 51.392 192.868 50.88C193.508 50.4 194.084 49.584 194.596 48.432L195.94 45.264L196.516 44.448L205.78 22.176H212.98L201.316 49.584C200.484 51.664 199.524 53.296 198.436 54.48C197.38 55.664 196.196 56.496 194.884 56.976C193.604 57.456 192.18 57.696 190.612 57.696ZM195.028 49.008L183.508 22.176H191.236L200.164 43.776L195.028 49.008ZM249.107 21.792C251.155 21.792 252.963 22.208 254.531 23.04C256.131 23.84 257.379 25.088 258.275 26.784C259.203 28.448 259.667 30.592 259.667 33.216V48H252.179V34.368C252.179 32.288 251.747 30.752 250.883 29.76C250.019 28.768 248.803 28.272 247.235 28.272C246.147 28.272 245.171 28.528 244.307 29.04C243.443 29.52 242.771 30.256 242.291 31.248C241.811 32.24 241.571 33.504 241.571 35.04V48H234.083V34.368C234.083 32.288 233.651 30.752 232.787 29.76C231.955 28.768 230.755 28.272 229.187 28.272C228.099 28.272 227.123 28.528 226.259 29.04C225.395 29.52 224.723 30.256 224.243 31.248C223.763 32.24 223.523 33.504 223.523 35.04V48H216.035V22.176H223.187V29.232L221.843 27.168C222.739 25.408 224.003 24.08 225.635 23.184C227.299 22.256 229.187 21.792 231.299 21.792C233.667 21.792 235.731 22.4 237.491 23.616C239.283 24.8 240.467 26.624 241.043 29.088L238.403 28.368C239.267 26.352 240.643 24.752 242.531 23.568C244.451 22.384 246.643 21.792 249.107 21.792ZM279.382 48.384C276.438 48.384 273.846 47.808 271.606 46.656C269.398 45.504 267.686 43.936 266.47 41.952C265.254 39.936 264.646 37.648 264.646 35.088C264.646 32.496 265.238 30.208 266.422 28.224C267.638 26.208 269.286 24.64 271.366 23.52C273.446 22.368 275.798 21.792 278.422 21.792C280.95 21.792 283.222 22.336 285.238 23.424C287.286 24.48 288.902 26.016 290.086 28.032C291.27 30.016 291.862 32.4 291.862 35.184C291.862 35.472 291.846 35.808 291.814 36.192C291.782 36.544 291.75 36.88 291.718 37.2H270.742V32.832H287.782L284.902 34.128C284.902 32.784 284.63 31.616 284.086 30.624C283.542 29.632 282.79 28.864 281.83 28.32C280.87 27.744 279.75 27.456 278.47 27.456C277.19 27.456 276.054 27.744 275.062 28.32C274.102 28.864 273.35 29.648 272.806 30.672C272.262 31.664 271.99 32.848 271.99 34.224V35.376C271.99 36.784 272.294 38.032 272.902 39.12C273.542 40.176 274.422 40.992 275.542 41.568C276.694 42.112 278.038 42.384 279.574 42.384C280.95 42.384 282.15 42.176 283.174 41.76C284.23 41.344 285.19 40.72 286.054 39.888L290.038 44.208C288.854 45.552 287.366 46.592 285.574 47.328C283.782 48.032 281.718 48.384 279.382 48.384ZM307.936 48.384C305.504 48.384 303.312 47.84 301.36 46.752C299.408 45.632 297.856 44.08 296.704 42.096C295.584 40.112 295.024 37.776 295.024 35.088C295.024 32.368 295.584 30.016 296.704 28.032C297.856 26.048 299.408 24.512 301.36 23.424C303.312 22.336 305.504 21.792 307.936 21.792C310.112 21.792 312.016 22.272 313.648 23.232C315.28 24.192 316.544 25.648 317.44 27.6C318.336 29.552 318.784 32.048 318.784 35.088C318.784 38.096 318.352 40.592 317.488 42.576C316.624 44.528 315.376 45.984 313.744 46.944C312.144 47.904 310.208 48.384 307.936 48.384ZM309.232 42.24C310.448 42.24 311.552 41.952 312.544 41.376C313.536 40.8 314.32 39.984 314.896 38.928C315.504 37.84 315.808 36.56 315.808 35.088C315.808 33.584 315.504 32.304 314.896 31.248C314.32 30.192 313.536 29.376 312.544 28.8C311.552 28.224 310.448 27.936 309.232 27.936C307.984 27.936 306.864 28.224 305.872 28.8C304.88 29.376 304.08 30.192 303.472 31.248C302.896 32.304 302.608 33.584 302.608 35.088C302.608 36.56 302.896 37.84 303.472 38.928C304.08 39.984 304.88 40.8 305.872 41.376C306.864 41.952 307.984 42.24 309.232 42.24ZM316 48V42.72L316.144 35.04L315.664 27.408V12.384H323.152V48H316ZM330.082 48V22.176H337.57V48H330.082ZM333.826 18.576C332.45 18.576 331.33 18.176 330.466 17.376C329.602 16.576 329.17 15.584 329.17 14.4C329.17 13.216 329.602 12.224 330.466 11.424C331.33 10.624 332.45 10.224 333.826 10.224C335.202 10.224 336.322 10.608 337.186 11.376C338.05 12.112 338.482 13.072 338.482 14.256C338.482 15.504 338.05 16.544 337.186 17.376C336.354 18.176 335.234 18.576 333.826 18.576ZM356.999 48.384C354.215 48.384 351.735 47.824 349.559 46.704C347.383 45.552 345.671 43.968 344.423 41.952C343.207 39.936 342.599 37.648 342.599 35.088C342.599 32.496 343.207 30.208 344.423 28.224C345.671 26.208 347.383 24.64 349.559 23.52C351.735 22.368 354.215 21.792 356.999 21.792C359.719 21.792 362.087 22.368 364.103 23.52C366.119 24.64 367.607 26.256 368.567 28.368L362.759 31.488C362.087 30.272 361.239 29.376 360.215 28.8C359.223 28.224 358.135 27.936 356.951 27.936C355.671 27.936 354.519 28.224 353.495 28.8C352.471 29.376 351.655 30.192 351.047 31.248C350.471 32.304 350.183 33.584 350.183 35.088C350.183 36.592 350.471 37.872 351.047 38.928C351.655 39.984 352.471 40.8 353.495 41.376C354.519 41.952 355.671 42.24 356.951 42.24C358.135 42.24 359.223 41.968 360.215 41.424C361.239 40.848 362.087 39.936 362.759 38.688L368.567 41.856C367.607 43.936 366.119 45.552 364.103 46.704C362.087 47.824 359.719 48.384 356.999 48.384Z" fill="#B03233"/>
<path d="M30.4798 23.015C39.9933 23.1864 50.2317 8.7497 50.2317 8.7497C50.2317 8.7497 44.3793 0.702637 30.4798 0.702637C16.5803 0.702637 11.4595 8.7497 11.4595 8.7497C11.4595 8.7497 21.1964 22.8477 30.4798 23.015Z" fill="#B03233"/>
<circle cx="30.4798" cy="33.2567" r="7.31552" fill="#B03233"/>
<path d="M49.8659 51.5456L30.4798 71.2975L11.4595 51.5456C11.4595 51.5456 17.6777 43.4985 30.4798 43.4985C43.282 43.4985 49.8659 51.5456 49.8659 51.5456Z" fill="#B03233" stroke="#B03233"/>
<path d="M60.4734 30.3305C59.7419 43.1327 51.6948 50.0824 51.6948 50.0824C51.6948 50.0824 39.99 42.4011 39.99 30.3305C39.99 18.2599 51.6948 10.5786 51.6948 10.5786C51.6948 10.5786 61.205 17.5284 60.4734 30.3305Z" fill="#B03233"/>
<path d="M0.52656 30.3305C1.25814 43.1327 9.30518 50.0824 9.30518 50.0824C9.30518 50.0824 21.01 42.4011 21.01 30.3305C21.01 18.2599 9.30518 10.5786 9.30518 10.5786C9.30518 10.5786 -0.205017 17.5284 0.52656 30.3305Z" fill="#B03233"/>
<rect x="29.0369" y="51.1797" width="2.92621" height="11.7048" fill="#D9D9D9"/>
<rect x="24.6475" y="58.4951" width="2.92621" height="11.7048" transform="rotate(-90 24.6475 58.4951)" fill="#D9D9D9"/>
</svg>
