<svg width="37" height="37" viewBox="0 0 37 37" fill="none" xmlns="http://www.w3.org/2000/svg">
<path d="M18.5421 0H18.4579C8.26387 0 0 8.26386 0 18.4579V18.5421C0 28.7361 8.26387 37 18.4579 37H18.5421C28.7361 37 37 28.7361 37 18.5421V18.4579C37 8.26386 28.7361 0 18.5421 0Z" fill="#151515"/>
<path d="M24.2296 7.52539H12.7808C9.61781 7.52539 7.04468 10.0985 7.04468 13.2615V23.7355C7.04468 26.8985 9.61781 29.4716 12.7808 29.4716H24.2296C27.3925 29.4716 29.9657 26.8985 29.9657 23.7355V13.2615C29.9657 10.0985 27.3925 7.52539 24.2296 7.52539ZM9.06819 13.2615C9.06819 11.2146 10.7339 9.5489 12.7808 9.5489H24.2296C26.2764 9.5489 27.9422 11.2146 27.9422 13.2615V23.7355C27.9422 25.7824 26.2764 27.4481 24.2296 27.4481H12.7808C10.7339 27.4481 9.06819 25.7824 9.06819 23.7355V13.2615Z" fill="white"/>
<path d="M18.5047 23.8332C21.446 23.8332 23.8402 21.4402 23.8402 18.4976C23.8402 15.5551 21.4473 13.1621 18.5047 13.1621C15.5621 13.1621 13.1692 15.5551 13.1692 18.4976C13.1692 21.4402 15.5621 23.8332 18.5047 23.8332ZM18.5047 15.1869C20.3312 15.1869 21.8167 16.6725 21.8167 18.4989C21.8167 20.3254 20.3312 21.811 18.5047 21.811C16.6783 21.811 15.1927 20.3254 15.1927 18.4989C15.1927 16.6725 16.6783 15.1869 18.5047 15.1869Z" fill="white"/>
<path d="M24.3285 14.0234C25.1205 14.0234 25.766 13.3791 25.766 12.5858C25.766 11.7925 25.1218 11.1482 24.3285 11.1482C23.5351 11.1482 22.8909 11.7925 22.8909 12.5858C22.8909 13.3791 23.5351 14.0234 24.3285 14.0234Z" fill="white"/>
</svg>
