<svg width="37" height="37" viewBox="0 0 37 37" fill="none" xmlns="http://www.w3.org/2000/svg">
<path d="M18.5421 0H18.4579C8.26388 0 0 8.26387 0 18.4579V18.5421C0 28.7361 8.26388 37 18.4579 37H18.5421C28.7361 37 37 28.7361 37 18.5421V18.4579C37 8.26387 28.7361 0 18.5421 0Z" fill="#151515"/>
<path d="M8.82379 12.3001C8.33639 11.8477 8.09399 11.2877 8.09399 10.6214C8.09399 9.95513 8.33768 9.3705 8.82379 8.9168C9.31119 8.4644 9.9386 8.23755 10.7073 8.23755C11.476 8.23755 12.0788 8.4644 12.5649 8.9168C13.0523 9.36921 13.2947 9.93828 13.2947 10.6214C13.2947 11.3046 13.051 11.8477 12.5649 12.3001C12.0775 12.7525 11.4591 12.9794 10.7073 12.9794C9.95545 12.9794 9.31119 12.7525 8.82379 12.3001ZM12.8851 14.8953V28.7656H8.50231V14.8953H12.8851Z" fill="#FEFFFC"/>
<path d="M27.4761 16.2623C28.4315 17.2994 28.9086 18.7227 28.9086 20.5349V28.5175H24.7462V21.0975C24.7462 20.1836 24.509 19.4732 24.0358 18.9677C23.5627 18.4621 22.9249 18.2081 22.1264 18.2081C21.3279 18.2081 20.6901 18.4608 20.2169 18.9677C19.7438 19.4732 19.5066 20.1836 19.5066 21.0975V28.5175H15.3196V14.8533H19.5066V16.6655C19.9305 16.0614 20.5021 15.5844 21.2203 15.2331C21.9384 14.8818 22.746 14.7068 23.6443 14.7068C25.244 14.7068 26.5221 15.2253 27.4761 16.261V16.2623Z" fill="#FEFFFC"/>
</svg>
