<svg width="60" height="71" viewBox="0 0 60 71" fill="none" xmlns="http://www.w3.org/2000/svg">
<path d="M29.9799 22.1243C39.489 22.2943 49.7228 7.97927 49.7228 7.97927C49.7228 7.97927 43.8731 0 29.9799 0C16.0868 0 10.9683 7.97927 10.9683 7.97927C10.9683 7.97927 20.7008 21.9585 29.9799 22.1243Z" fill="#B03233"/>
<ellipse cx="29.9799" cy="32.2798" rx="7.31219" ry="7.25388" fill="#B03233"/>
<path d="M49.3572 50.4145L29.9799 70L10.9683 50.4145C10.9683 50.4145 17.1836 42.4352 29.9799 42.4352C42.7763 42.4352 49.3572 50.4145 49.3572 50.4145Z" fill="#B03233" stroke="#B03233"/>
<path d="M59.9597 29.3783C59.2285 42.0725 51.1851 48.9637 51.1851 48.9637C51.1851 48.9637 39.4856 41.3472 39.4856 29.3783C39.4856 17.4093 51.1851 9.79277 51.1851 9.79277C51.1851 9.79277 60.691 16.684 59.9597 29.3783Z" fill="#B03233"/>
<path d="M0.040287 29.3783C0.77153 42.0725 8.81491 48.9637 8.81491 48.9637C8.81491 48.9637 20.5144 41.3472 20.5144 29.3783C20.5144 17.4093 8.81491 9.79277 8.81491 9.79277C8.81491 9.79277 -0.690956 16.684 0.040287 29.3783Z" fill="#B03233"/>
<rect x="28.5376" y="50.0518" width="2.92487" height="11.6062" fill="#D9D9D9"/>
<rect x="24.1501" y="57.3057" width="2.90155" height="11.6995" transform="rotate(-90 24.1501 57.3057)" fill="#D9D9D9"/>
</svg>
