<svg width="51" height="50" viewBox="0 0 51 50" fill="none" xmlns="http://www.w3.org/2000/svg">
<path d="M15.0833 26.0417C16.3194 26.0417 17.5278 25.6751 18.5556 24.9884C19.5834 24.3016 20.3845 23.3255 20.8575 22.1834C21.3305 21.0414 21.4543 19.7847 21.2132 18.5724C20.972 17.36 20.3767 16.2463 19.5027 15.3722C18.6286 14.4982 17.5149 13.9029 16.3026 13.6618C15.0902 13.4206 13.8335 13.5444 12.6915 14.0174C11.5494 14.4905 10.5733 15.2915 9.88657 16.3194C9.19981 17.3472 8.83325 18.5555 8.83325 19.7917C8.83325 21.4493 9.49173 23.039 10.6638 24.2111C11.8359 25.3832 13.4256 26.0417 15.0833 26.0417ZM15.0833 17.7083C15.4953 17.7083 15.8981 17.8305 16.2407 18.0594C16.5833 18.2884 16.8503 18.6137 17.008 18.9944C17.1657 19.3751 17.2069 19.794 17.1266 20.1981C17.0462 20.6022 16.8477 20.9734 16.5564 21.2648C16.265 21.5562 15.8938 21.7546 15.4897 21.835C15.0856 21.9154 14.6667 21.8741 14.286 21.7164C13.9053 21.5587 13.5799 21.2917 13.351 20.9491C13.1221 20.6065 12.9999 20.2037 12.9999 19.7917C12.9999 19.2391 13.2194 18.7092 13.6101 18.3185C14.0008 17.9278 14.5307 17.7083 15.0833 17.7083ZM42.1666 13.5417H25.4999C24.9474 13.5417 24.4175 13.7612 24.0268 14.1519C23.6361 14.5426 23.4166 15.0725 23.4166 15.625V28.125H6.74992V11.4583C6.74992 10.9058 6.53043 10.3759 6.13972 9.98519C5.74902 9.59449 5.21912 9.375 4.66659 9.375C4.11405 9.375 3.58415 9.59449 3.19345 9.98519C2.80275 10.3759 2.58325 10.9058 2.58325 11.4583V38.5417C2.58325 39.0942 2.80275 39.6241 3.19345 40.0148C3.58415 40.4055 4.11405 40.625 4.66659 40.625C5.21912 40.625 5.74902 40.4055 6.13972 40.0148C6.53043 39.6241 6.74992 39.0942 6.74992 38.5417V32.2917H44.2499V38.5417C44.2499 39.0942 44.4694 39.6241 44.8601 40.0148C45.2508 40.4055 45.7807 40.625 46.3333 40.625C46.8858 40.625 47.4157 40.4055 47.8064 40.0148C48.1971 39.6241 48.4166 39.0942 48.4166 38.5417V19.7917C48.4166 18.1341 47.7581 16.5444 46.586 15.3722C45.4139 14.2001 43.8242 13.5417 42.1666 13.5417ZM44.2499 28.125H27.5833V17.7083H42.1666C42.7191 17.7083 43.249 17.9278 43.6397 18.3185C44.0304 18.7092 44.2499 19.2391 44.2499 19.7917V28.125Z" fill="black"/>
</svg>
