<svg width="50" height="50" viewBox="0 0 50 50" fill="none" xmlns="http://www.w3.org/2000/svg">
<path d="M24.9219 1.13281L1.38672 12.9883V48.75H3.26172V14.1211L24.9219 3.26172L46.6016 14.1602V48.75H48.4375V12.9883L24.9219 1.13281ZM39.3164 29.3945L36.4258 21.9336C35.8984 20.5273 34.707 19.2969 32.4609 19.2969H28.3789H21.4062H17.2852C15.0781 19.2969 13.9063 20.5078 13.3203 21.9336L10.4297 29.3945C9.29687 29.5508 7.26563 30.8789 7.26563 33.418V42.9102H10.0781V45.957C10.0781 49.6875 15.3711 49.668 15.3711 45.957V42.9102H24.9023H34.4336V45.957C34.4336 49.668 39.7266 49.6875 39.7266 45.957V42.9102H42.5391V33.418C42.4805 30.8789 40.4688 29.5117 39.3164 29.3945ZM12.793 37.1875C11.4648 37.1875 10.3516 36.0547 10.3516 34.668C10.3516 33.3008 11.4453 32.1484 12.793 32.1484C14.1211 32.1484 15.2344 33.2812 15.2344 34.668C15.2344 36.0547 14.1602 37.1875 12.793 37.1875ZM24.8633 29.3164H13.4375L15.6055 23.4375C15.8594 22.5977 16.2891 22.0312 17.2461 21.9922H24.8633H32.4805C33.4375 21.9922 33.8477 22.5977 34.1211 23.4375L36.2891 29.3164H24.8633ZM36.9727 37.1875C35.6445 37.1875 34.5312 36.0547 34.5312 34.668C34.5312 33.3008 35.625 32.1484 36.9727 32.1484C38.3203 32.1484 39.4141 33.2812 39.4141 34.668C39.4141 36.0547 38.3008 37.1875 36.9727 37.1875Z" fill="black"/>
</svg>
