<svg width="51" height="50" viewBox="0 0 51 50" fill="none" xmlns="http://www.w3.org/2000/svg">
<path fill-rule="evenodd" clip-rule="evenodd" d="M40.9874 7.8125C40.9874 6.56875 40.4937 5.37656 39.614 4.49844C38.7358 3.61875 37.5437 3.125 36.2999 3.125C30.939 3.125 20.0499 3.125 14.689 3.125C13.4468 3.125 12.2546 3.61875 11.3749 4.49844C10.4952 5.37656 10.0015 6.56875 10.0015 7.8125V42.1875C10.0015 43.4313 10.4952 44.6234 11.3749 45.5016C12.2546 46.3813 13.4468 46.875 14.689 46.875C20.0499 46.875 30.939 46.875 36.2999 46.875C37.5437 46.875 38.7358 46.3813 39.614 45.5016C40.4937 44.6234 40.9874 43.4313 40.9874 42.1875V7.8125ZM37.8624 7.8125V42.1875C37.8624 42.6016 37.6983 43 37.4046 43.2922C37.1108 43.5859 36.714 43.75 36.2999 43.75H14.689C14.2749 43.75 13.878 43.5859 13.5843 43.2922C13.2921 43 13.1265 42.6016 13.1265 42.1875V7.8125C13.1265 7.39844 13.2921 7 13.5843 6.70781C13.878 6.41406 14.2749 6.25 14.689 6.25H36.2999C36.714 6.25 37.1108 6.41406 37.4046 6.70781C37.6983 7 37.8624 7.39844 37.8624 7.8125Z" fill="black"/>
<path fill-rule="evenodd" clip-rule="evenodd" d="M23.9297 12.5H22.3704C21.5079 12.5 20.8079 13.2 20.8079 14.0625C20.8079 14.925 21.5079 15.625 22.3704 15.625H23.936L23.9391 17.1906C23.9407 18.0531 24.6422 18.7516 25.5047 18.75C26.3672 18.7484 27.0657 18.0469 27.0641 17.1844L27.061 15.625H28.6204C29.4813 15.625 30.1829 14.925 30.1829 14.0625C30.1829 13.2 29.4813 12.5 28.6204 12.5H27.0547L27.0501 10.9344C27.0485 10.0719 26.3469 9.37344 25.4844 9.375C24.6219 9.37657 23.9235 10.0781 23.925 10.9406L23.9297 12.5Z" fill="black"/>
<path fill-rule="evenodd" clip-rule="evenodd" d="M23.925 26.5625H33.325C34.1875 26.5625 34.8875 25.8625 34.8875 25C34.8875 24.1375 34.1875 23.4375 33.325 23.4375H23.925C23.0625 23.4375 22.3625 24.1375 22.3625 25C22.3625 25.8625 23.0625 26.5625 23.925 26.5625Z" fill="black"/>
<path fill-rule="evenodd" clip-rule="evenodd" d="M23.925 32.8125H33.325C34.1875 32.8125 34.8875 32.1125 34.8875 31.25C34.8875 30.3875 34.1875 29.6875 33.325 29.6875H23.925C23.0625 29.6875 22.3625 30.3875 22.3625 31.25C22.3625 32.1125 23.0625 32.8125 23.925 32.8125Z" fill="black"/>
<path fill-rule="evenodd" clip-rule="evenodd" d="M23.9141 39.0532H33.3125C34.175 39.0532 34.875 38.3532 34.875 37.4907C34.875 36.6282 34.175 35.9282 33.3125 35.9282H23.9141C23.0516 35.9282 22.3516 36.6282 22.3516 37.4907C22.3516 38.3532 23.0516 39.0532 23.9141 39.0532Z" fill="black"/>
<path d="M17.6843 26.4968C18.5473 26.4968 19.2468 25.7973 19.2468 24.9343C19.2468 24.0714 18.5473 23.3718 17.6843 23.3718C16.8214 23.3718 16.1218 24.0714 16.1218 24.9343C16.1218 25.7973 16.8214 26.4968 17.6843 26.4968Z" fill="black"/>
<path d="M17.6843 32.7749C18.5473 32.7749 19.2468 32.0753 19.2468 31.2124C19.2468 30.3495 18.5473 29.6499 17.6843 29.6499C16.8214 29.6499 16.1218 30.3495 16.1218 31.2124C16.1218 32.0753 16.8214 32.7749 17.6843 32.7749Z" fill="black"/>
<path d="M17.6843 39.0532C18.5473 39.0532 19.2468 38.3537 19.2468 37.4907C19.2468 36.6278 18.5473 35.9282 17.6843 35.9282C16.8214 35.9282 16.1218 36.6278 16.1218 37.4907C16.1218 38.3537 16.8214 39.0532 17.6843 39.0532Z" fill="black"/>
</svg>
