<svg width="50" height="50" viewBox="0 0 50 50" fill="none" xmlns="http://www.w3.org/2000/svg">
<path d="M49.9823 14.7706C49.829 13.5588 48.7234 12.706 47.5101 12.8556L37.7289 14.0991H2.21128C0.989917 14.0991 0 15.089 0 16.3104C0 17.5317 0.989917 18.5216 2.21128 18.5216H16.0215L23.9577 26.4579L14.5989 35.8161C14.0903 35.5419 13.5176 35.3723 12.9006 35.3723C10.9082 35.3723 9.28812 36.9932 9.28812 38.9848C9.28812 40.9772 10.909 42.5981 12.9006 42.5981C14.893 42.5981 16.5138 40.9772 16.5138 38.9848C16.5138 38.1453 16.2138 37.3817 15.7318 36.7677L17.2959 35.2036H29.4226C29.8294 35.2036 30.1597 34.8733 30.1597 34.4665C30.1597 34.0596 29.8294 33.7294 29.4226 33.7294H18.7701L25 27.4994L34.1311 36.6306C33.5812 37.2645 33.2363 38.0812 33.2363 38.9848C33.2363 40.9772 34.8572 42.5981 36.8495 42.5981C38.8419 42.5981 40.462 40.9772 40.462 38.9848C40.462 36.9925 38.8411 35.3723 36.8495 35.3723C36.2982 35.3723 35.7807 35.5065 35.3127 35.7284L26.0423 26.4572L33.9785 18.5209H37.8689C37.9618 18.5209 38.0554 18.515 38.1475 18.5032L48.0673 17.2428C49.2784 17.0887 50.1364 15.9824 49.9823 14.7706ZM12.8999 41.1239C11.7205 41.1239 10.7616 40.1642 10.7616 38.9848C10.7616 37.8055 11.7213 36.8465 12.8999 36.8465C14.0792 36.8465 15.0389 37.8062 15.0389 38.9848C15.0389 40.1642 14.08 41.1239 12.8999 41.1239ZM38.9878 38.9848C38.9878 40.1642 38.0281 41.1239 36.8495 41.1239C35.6702 41.1239 34.7105 40.1642 34.7105 38.9848C34.7105 37.8055 35.6702 36.8465 36.8495 36.8465C38.0281 36.8465 38.9878 37.8055 38.9878 38.9848ZM30.7796 19.6354C30.7626 19.6339 30.7479 19.6258 30.7302 19.6258H23.0342C22.6273 19.6258 22.2971 19.956 22.2971 20.3629C22.2971 20.7698 22.6273 21.1 23.0342 21.1H29.3149L25 25.4149L18.106 18.5209H31.8933L30.7796 19.6354ZM37.4502 12.7222C37.3611 12.1185 37.779 11.5561 38.3834 11.4677L46.9521 10.2072C47.5514 10.1151 48.1182 10.536 48.2067 11.1404C48.2951 11.7448 47.8779 12.3065 47.2735 12.3949L38.7048 13.6554C38.6502 13.6635 38.5964 13.6672 38.5426 13.6672C38.0031 13.6672 37.5306 13.2721 37.4502 12.7222ZM13.4733 38.9848C13.4733 39.3011 13.2168 39.5576 12.9006 39.5576C12.5844 39.5576 12.3279 39.3011 12.3279 38.9848C12.3279 38.6686 12.5844 38.4121 12.9006 38.4121C13.2168 38.4121 13.4733 38.6686 13.4733 38.9848ZM36.2761 38.9848C36.2761 38.6686 36.5326 38.4121 36.8488 38.4121C37.165 38.4121 37.4215 38.6686 37.4215 38.9848C37.4215 39.3011 37.165 39.5576 36.8488 39.5576C36.5326 39.5576 36.2761 39.3018 36.2761 38.9848ZM5.34393 12.5615C5.34393 9.71633 7.52057 7.40186 10.1962 7.40186H31.5424C34.2174 7.40186 36.3947 9.71633 36.3947 12.5615C36.3947 12.9684 36.0645 13.2986 35.6576 13.2986C35.2508 13.2986 34.9205 12.9684 34.9205 12.5615C34.9205 10.5293 33.4051 8.87604 31.5424 8.87604H29.5751V12.5615C29.5751 12.9684 29.2449 13.2986 28.838 13.2986C28.4312 13.2986 28.101 12.9684 28.101 12.5615V8.87604H13.637V12.5615C13.637 12.9684 13.3067 13.2986 12.8999 13.2986C12.493 13.2986 12.1628 12.9684 12.1628 12.5615V8.87604H10.1955C8.33284 8.87604 6.81738 10.5293 6.81738 12.5615C6.81738 12.9684 6.48716 13.2986 6.08028 13.2986C5.67341 13.2986 5.34393 12.9684 5.34393 12.5615Z" fill="black"/>
</svg>
