<svg width="50" height="50" viewBox="0 0 50 50" fill="none" xmlns="http://www.w3.org/2000/svg">
<path d="M16.4499 34.5C16.8999 37.15 19.0999 40.05 21.1499 41.4501C22.3999 42.3 23.7999 42.7001 25.1499 42.7001C25.5999 42.7001 25.9999 42.65 26.3999 42.55C31.2499 41.5 32.2499 35.55 31.7499 31.8C31.4999 29.9 30.9499 28 30.1499 26.15C33.7999 26.15 36.7499 23.2 36.7499 19.55V8.55005C36.7499 7.85005 36.1999 7.30005 35.4999 7.30005H31.1499V9.30005H34.7499V19.6C34.7499 22.15 32.6999 24.2001 30.1499 24.2001H26.9999C24.4499 24.2001 22.3999 22.15 22.3999 19.6V9.30005H26.0499V7.30005H21.6499C20.9499 7.30005 20.3999 7.85005 20.3999 8.55005V19.6C20.3999 23.25 23.3499 26.2001 26.9999 26.2001H27.9999C28.8999 28.1 29.5499 30.15 29.7999 32.1C30.1999 35 29.4999 39.9001 25.9999 40.6501C24.7999 40.9001 23.4499 40.6 22.2499 39.8C20.6499 38.7 18.8999 36.4001 18.4499 34.4501C20.1999 33.9501 21.5499 32.35 21.5499 30.4C21.5499 28.1 19.6499 26.2001 17.3499 26.2001C15.0499 26.2001 13.1499 28.1 13.1499 30.4C13.1999 32.4 14.5999 34.1 16.4499 34.5ZM17.3999 28.2001C18.5999 28.2001 19.5999 29.2 19.5999 30.4C19.5999 31.6 18.5999 32.6 17.3999 32.6C16.1999 32.6 15.1999 31.6 15.1999 30.4C15.1999 29.2 16.1999 28.2001 17.3999 28.2001Z" fill="black"/>
</svg>
