<svg width="17" height="30" viewBox="0 0 17 30" fill="none" xmlns="http://www.w3.org/2000/svg">
<path d="M0.68 16.32C0.226667 15.8667 0 15.2533 0 14.48C0 14.1333 0.0533333 13.8133 0.16 13.52C0.266666 13.2267 0.440001 13 0.68 12.84L12.52 0.84C12.7867 0.573334 13.06 0.366667 13.34 0.220001C13.62 0.0733337 13.96 0 14.36 0C15.0267 0 15.5733 0.226667 16 0.68C16.2667 0.92 16.4733 1.2 16.62 1.52C16.7667 1.84 16.84 2.16 16.84 2.48C16.84 3.28 16.6267 3.89333 16.2 4.32L6 14.68L16.36 25.84C16.7867 26.2667 17 26.88 17 27.68C17 28.32 16.7333 28.9333 16.2 29.52C15.6667 29.84 15.0533 30 14.36 30C14.0133 30 13.68 29.9267 13.36 29.78C13.04 29.6333 12.76 29.4267 12.52 29.16L0.68 16.32Z" fill="#FFD600"/>
</svg>
