<svg width="17" height="33" viewBox="0 0 17 33" fill="none" xmlns="http://www.w3.org/2000/svg">
<path d="M16.32 18.18C16.7733 17.6889 17 17.0244 17 16.1867C17 15.8111 16.9467 15.4644 16.84 15.1467C16.7333 14.8289 16.56 14.5833 16.32 14.41L4.48 1.41C4.21333 1.12111 3.94 0.897221 3.66 0.738335C3.38 0.579445 3.04 0.5 2.64 0.5C1.97333 0.5 1.42667 0.745556 1 1.23667C0.733333 1.49667 0.526667 1.8 0.38 2.14667C0.233333 2.49333 0.16 2.84 0.16 3.18667C0.16 4.05333 0.373333 4.71778 0.8 5.18L11 16.4033L0.64 28.4933C0.213333 28.9556 0 29.62 0 30.4867C0 31.18 0.266667 31.8444 0.8 32.48C1.33333 32.8267 1.94667 33 2.64 33C2.98667 33 3.32 32.9206 3.64 32.7617C3.96 32.6028 4.24 32.3789 4.48 32.09L16.32 18.18Z" fill="#FFD600"/>
</svg>
