<svg width="37" height="37" viewBox="0 0 37 37" fill="none" xmlns="http://www.w3.org/2000/svg">
<path d="M18.5421 0H18.4579C8.26387 0 0 8.26386 0 18.4579V18.5421C0 28.7361 8.26387 37 18.4579 37H18.5421C28.7361 37 37 28.7361 37 18.5421V18.4579C37 8.26386 28.7361 0 18.5421 0Z" fill="#151515"/>
<path d="M29.3015 11.802C28.7946 12.314 28.092 12.6316 27.313 12.6316C27.2132 12.6316 27.1159 12.6264 27.0187 12.616C27.8315 12.1286 28.4589 11.3651 28.7713 10.4551C28.7713 10.4551 28.7726 10.4551 28.7726 10.4538C28.8167 10.332 28.853 10.2088 28.8815 10.0818C28.2385 10.7688 27.3596 11.2342 26.3732 11.3457C26.2215 11.3638 26.0672 11.3729 25.913 11.3729C25.8637 11.3729 25.8158 11.3716 25.7691 11.369C25.4359 11.019 25.038 10.7286 24.5973 10.516C24.106 10.2762 23.5563 10.1349 22.9769 10.1168C22.9289 10.1142 22.8823 10.1129 22.833 10.1129C22.3417 10.1129 21.8699 10.1998 21.4343 10.3605C21.3228 10.4007 21.2139 10.4461 21.1076 10.4979C19.7271 11.1448 18.7717 12.5486 18.7717 14.1742C18.7717 14.5073 18.8119 14.8327 18.8884 15.1425C18.4658 15.1257 18.0471 15.0855 17.6362 15.0232C17.5039 15.0025 17.373 14.9792 17.2421 14.9546C16.1947 14.7601 15.1953 14.4257 14.2671 13.9694C13.4362 13.5636 12.6623 13.062 11.9571 12.4786C11.3647 11.9899 10.8229 11.4455 10.3381 10.8492C10.3173 10.8246 10.2966 10.7973 10.2758 10.7727C10.2473 10.8155 10.2214 10.8596 10.1981 10.9049C9.85973 11.4973 9.66788 12.1818 9.66788 12.9129C9.66788 12.9349 9.66788 12.9596 9.66918 12.9816C9.67696 13.5286 9.79361 14.0497 10.001 14.5242C10.0892 14.7342 10.1968 14.9325 10.3199 15.1218C10.6829 15.6805 11.1781 16.1458 11.764 16.4673C11.7912 16.4842 11.8171 16.4984 11.8456 16.5114C11.8042 16.5192 11.7601 16.5269 11.7173 16.5308C11.5968 16.5464 11.4736 16.5542 11.3492 16.5542C10.7256 16.5542 10.1462 16.3597 9.67177 16.0279C9.66918 16.0629 9.66918 16.0979 9.66918 16.1342C9.66918 17.2944 10.1553 18.3405 10.9344 19.078C11.541 19.6562 12.3253 20.0464 13.1964 20.1591C12.8827 20.2745 12.5443 20.3354 12.1905 20.3354C11.808 20.3354 11.4425 20.2629 11.1081 20.1293C11.6071 21.751 13.094 22.9397 14.8673 22.9941C13.7849 24.1193 12.2631 24.818 10.5805 24.818C9.53437 24.818 8.55047 24.5471 7.69751 24.074C9.74694 25.8473 12.4186 26.918 15.3417 26.918C21.8012 26.918 27.0369 21.6823 27.0369 15.2229C27.0369 14.8677 27.0213 14.5151 26.9889 14.1677C28.057 13.7464 28.9048 12.8831 29.3054 11.802H29.3015Z" fill="white"/>
</svg>
