<svg width="37" height="37" viewBox="0 0 37 37" fill="none" xmlns="http://www.w3.org/2000/svg">
<path d="M37 18.5C37 8.28274 28.7173 0 18.5 0C8.28274 0 0 8.28274 0 18.5C0 28.7173 8.28274 37 18.5 37C28.7173 37 37 28.7173 37 18.5Z" fill="#151515"/>
<path d="M30.1497 14.6657C30.0041 13.2605 29.6908 11.707 28.5377 10.8906C27.6446 10.2575 26.4707 10.2341 25.3748 10.2354C23.0583 10.2354 20.7404 10.2393 18.4239 10.2406C16.1957 10.2432 13.9675 10.2445 11.7394 10.2471C10.8086 10.2471 9.90378 10.1756 9.0393 10.5786C8.29701 10.9244 7.71592 11.5822 7.36623 12.3141C6.88133 13.3319 6.77994 14.485 6.72144 15.6108C6.61354 17.6609 6.62524 19.7161 6.75394 21.7649C6.84884 23.2599 7.08933 24.9121 8.24501 25.865C9.2694 26.7087 10.715 26.7503 12.0435 26.7516C16.2607 26.7555 20.4791 26.7594 24.6976 26.762C25.2383 26.7633 25.8025 26.7529 26.3537 26.6931C27.4379 26.5761 28.4714 26.2654 29.1682 25.462C29.8715 24.6522 30.0522 23.5251 30.1588 22.4578C30.4188 19.8682 30.4162 17.254 30.1497 14.6657ZM15.9851 22.1289V14.8685L22.2718 18.4981L15.9851 22.1289Z" fill="white"/>
</svg>
